<svg xmlns="http://www.w3.org/2000/svg" width="64" height="64" viewBox="0 0 24 24" fill="url(#githubGradient)">
  <defs>
    <linearGradient id="githubGradient" x1="0%" y1="0%" x2="100%" y2="100%">
      <stop offset="0%" stop-color="#6e40c9"/>
      <stop offset="50%" stop-color="#ff6ec4"/>
      <stop offset="100%" stop-color="#7873f5"/>
    </linearGradient>
  </defs>
  <path fill-rule="evenodd" clip-rule="evenodd" d="M12 0C5.37 0 0 5.4 0 12.07c0 5.34 3.44 9.86 8.2 11.46.6.1.82-.26.82-.58v-2.17c-3.34.73-4.04-1.64-4.04-1.64-.54-1.38-1.32-1.74-1.32-1.74-1.08-.76.08-.75.08-.75 1.2.09 1.84 1.25 1.84 1.25 1.06 1.85 2.8 1.32 3.48 1.01.1-.78.42-1.32.76-1.63-2.67-.31-5.47-1.36-5.47-6.05 0-1.34.46-2.43 1.22-3.29-.12-.3-.53-1.53.11-3.2 0 0 1-.33 3.3 1.25a11.4 11.4 0 0 1 6 0c2.3-1.58 3.3-1.25 3.3-1.25.64 1.67.24 2.9.12 3.2.76.86 1.22 1.95 1.22 3.29 0 4.7-2.8 5.73-5.48 6.03.44.39.82 1.16.82 2.35v3.49c0 .32.22.7.82.58A12.04 12.04 0 0 0 24 12.07C24 5.4 18.63 0 12 0z"/>
</svg>
